<?xml version="1.0" encoding="iso-8859-1"?>
<!-- Uploaded to: SVG Repo, www.svgrepo.com, Generator: SVG Repo Mixer Tools -->
<svg fill="#000000" height="800px" width="800px" version="1.1" id="Layer_1" xmlns="http://www.w3.org/2000/svg" xmlns:xlink="http://www.w3.org/1999/xlink" 
	 viewBox="0 0 512 512" xml:space="preserve">
<g>
	<g>
		<path d="M418.034,43.724c-22.164,0-40.197,18.032-40.197,40.197v78.722c0,8.862-7.21,16.072-16.072,16.072h-40.615V85.83
			C321.149,38.503,282.646,0,235.32,0s-85.83,38.503-85.83,85.83v220.421h-7.62c-7.458,0-13.524-6.066-13.524-13.524v-71.088
			c0-20.561-16.727-37.288-37.288-37.288c-20.562,0-37.288,16.728-37.288,37.288v110.038c0,27.101,22.049,49.15,49.15,49.15h46.571
			v110.775h-35.889c-5.633,0-10.199,4.566-10.199,10.199c0,5.633,4.566,10.199,10.199,10.199h46.088H310.95h22.454
			c5.632,0,10.199-4.566,10.199-10.199c0-5.633-4.567-10.199-10.199-10.199h-12.254V259.109h83.749
			c29.407,0,53.333-23.925,53.333-53.333V83.921C458.231,61.756,440.199,43.724,418.034,43.724z M149.49,360.43h-46.571
			c-15.854,0-28.752-12.898-28.752-28.752V221.639c0-9.313,7.577-16.89,16.89-16.89c9.313,0,16.89,7.577,16.89,16.89v71.088
			c0,18.704,15.217,33.923,33.923,33.923h7.62V360.43z M300.751,491.602H169.888V85.83c0-36.08,29.352-65.432,65.432-65.432
			c36.079,0,65.431,29.352,65.431,65.432v92.884h-17.707c-22.164,0-40.197,18.032-40.197,40.197
			c0,22.164,18.033,40.197,40.197,40.197h17.707V491.602z M437.833,205.776L437.833,205.776
			c-0.001,18.16-14.774,32.934-32.935,32.934H283.044c-10.917,0-19.799-8.881-19.799-19.799s8.881-19.799,19.799-19.799h78.722
			c20.11,0,36.47-16.361,36.47-36.47V83.921c0-10.917,8.881-19.799,19.799-19.799c10.917,0,19.799,8.881,19.799,19.799V205.776z"/>
	</g>
</g>
<g>
	<g>
		<path d="M202.231,289.525c-5.633,0-10.199,4.566-10.199,10.199v142.99c0,5.633,4.566,10.199,10.199,10.199
			s10.199-4.566,10.199-10.199v-142.99C212.43,294.091,207.864,289.525,202.231,289.525z"/>
	</g>
</g>
<g>
	<g>
		<path d="M202.231,225.711c-5.633,0-10.199,4.566-10.199,10.199v17.726c0,5.633,4.566,10.199,10.199,10.199
			s10.199-4.566,10.199-10.199v-17.726C212.43,230.278,207.864,225.711,202.231,225.711z"/>
	</g>
</g>
<g>
	<g>
		<path d="M235.32,94.538c-5.633,0-10.199,4.566-10.199,10.199v49.633c0,5.633,4.566,10.199,10.199,10.199
			c5.633,0,10.199-4.566,10.199-10.199v-49.633C245.519,99.105,240.953,94.538,235.32,94.538z"/>
	</g>
</g>
<g>
	<g>
		<path d="M235.32,41.361c-5.633,0-10.199,4.566-10.199,10.199v14.181c0,5.632,4.566,10.199,10.199,10.199
			c5.633,0,10.199-4.566,10.199-10.199V51.56C245.519,45.927,240.953,41.361,235.32,41.361z"/>
	</g>
</g>
<g>
	<g>
		<path d="M277.863,388.791c-5.632,0-10.199,4.566-10.199,10.199v14.181c0,5.633,4.567,10.199,10.199,10.199
			s10.199-4.566,10.199-10.199V398.99C288.062,393.357,283.495,388.791,277.863,388.791z"/>
	</g>
</g>
<g>
	<g>
		<path d="M388.946,491.602h-15.363c-5.632,0-10.199,4.566-10.199,10.199c0,5.633,4.567,10.199,10.199,10.199h15.363
			c5.632,0,10.199-4.566,10.199-10.199C399.145,496.168,394.578,491.602,388.946,491.602z"/>
	</g>
</g>
</svg>